<?xml version="1.0" encoding="utf-8"?>
<!-- Generator: Adobe Illustrator 25.0.0, SVG Export Plug-In . SVG Version: 6.00 Build 0)  -->
<svg version="1.1" id="Calque_1" xmlns="http://www.w3.org/2000/svg" xmlns:xlink="http://www.w3.org/1999/xlink" x="0px" y="0px"
	 viewBox="0 0 512 512" style="enable-background:new 0 0 512 512;" xml:space="preserve">
<style type="text/css">
	.st0{fill:#2A56A3;}
</style>
<path d="M413,248.5c-3.8-5.8-9.6-9.9-16.4-11.3c-2.8-0.6-5.7-0.7-8.5-0.3c1.8-6.8,6.6-24.5,6.8-25.2c2.1-7.8,1-15.9-3-22.9
	c-4-7-10.5-12-18.3-14.1c-3.6-1-7.4-1.2-11.1-0.8c0.4-5.9-1-11.7-4.2-17c-2.9-4.7-6.9-8.4-11.7-10.9c-0.9-6.6-3.9-12.8-8.8-17.7
	c-9.7-9.7-24.2-11.5-35.4-5.4c-1.3-4.4-3.6-8.6-7.1-12.1c-5.5-5.5-12.8-8.5-20.6-8.5h0c-7.8,0-15.1,3-20.6,8.5L155,210l5.5-23.6
	c2.7-10.1-0.1-20.9-7.5-28.2c-5.5-5.5-12.8-8.5-20.6-8.5h0c-7.8,0-15.1,3-20.6,8.5c-4.2,4.2-7,9.6-8.1,15.5L54,309.1
	c-0.7,1.6-1.4,3.3-1.9,5c0,0.1-0.1,0.2-0.1,0.4c-0.9,3.1-1.5,6.3-1.7,9.6c-0.9,5.4-1.4,10.9-1.4,16.4c0,2.2,0.9,4.4,2.5,6l86.4,86.4
	c1.6,1.6,3.7,2.5,5.9,2.5h0c13.3,0,26.4-2.8,38.4-8.2l2.6,14.8c0.2,1.8,0.5,3.7,0.9,5.5c0,0.1,0.1,0.2,0.1,0.3c0.8,3,1.9,6,3.3,9
	c1.9,5.1,4.2,10.2,7,14.9c1.1,1.9,3,3.3,5.1,3.9l117.9,31.6c0.7,0.2,1.4,0.3,2.2,0.3c1.5,0,2.9-0.4,4.2-1.1
	c18-10.4,32.1-26.6,40-45.7c0.6-0.7,1.1-1.6,1.5-2.5c12.2-33.4,22.1-68.2,30.1-106.3c0-0.1,0.1-0.1,0.1-0.1l18.3-78.1l1.3-5.3
	C418.1,261.4,416.8,254.4,413,248.5L413,248.5z M325.9,140.3c0.7,0.7,1.4,1.5,1.9,2.4c-3.6,0.5-7.2,1.6-10.4,3.4
	c-4.6,2.5-8.1,6.1-10.7,10.3c-2.7-2.6-6-4.6-9.7-6l10.8-10.8C312.6,134.8,320.7,135.1,325.9,140.3L325.9,140.3z M147,418.4
	l-81.3-81.3c0.2-3.5,0.5-7,1.2-10.4c0.1-0.3,0.1-0.6,0.1-0.9c0.1-2.2,0.5-4.4,1.1-6.4c0-0.1,0-0.1,0.1-0.2c0.3-1.1,0.7-2.2,1.4-3.7
	l50.2-136.7c0.2-0.5,0.3-1.1,0.4-1.7c0.4-2.7,1.6-5.1,3.5-6.9c2.3-2.3,5.4-3.6,8.7-3.6h0c3.3,0,6.4,1.3,8.7,3.6
	c3.1,3.1,4.3,7.7,3.1,12.2L132,234.7c-0.7,3,0.4,6.1,2.7,8.1c4.3,6.6,7.9,13.7,10.5,21.2c1.2,3.5,4.5,5.6,7.9,5.6
	c0.9,0,1.9-0.2,2.8-0.5c4.4-1.5,6.7-6.3,5.1-10.7c-2.6-7.3-5.9-14.3-9.9-20.9L266,122.7c2.3-2.3,5.4-3.6,8.7-3.6h0
	c3.3,0,6.4,1.3,8.7,3.6c4.8,4.8,4.8,12.6,0,17.4l-15.1,15.1c-1.3,1.1-2.5,2.3-3.6,3.6L241,182.6l-49.2,49.2c-3.3,3.3-3.3,8.6,0,11.9
	c3.3,3.3,8.6,3.3,11.9,0l48.3-48.3l-13.8,51.5l-3.3,3.3c0,0,0,0,0,0l-15.2,15.2c-3.3,3.3-3.3,8.6,0,11.9c1.6,1.6,3.8,2.5,5.9,2.5
	c1.4,0,2.8-0.5,4.1-1.2l-7.2,27l-7.1-23.1c-2.7-10.1-10.6-18-20.6-20.7c-15.5-4.2-31.5,5.1-35.7,20.6c-1.6,5.8-1.3,11.8,0.8,17.4
	L179,409.8C169.1,414.9,158.2,417.9,147,418.4L147,418.4z M400.2,264.4l-17.8,75.7c-0.3,0.5-0.4,1.1-0.6,1.7
	c-7.9,38.8-17.7,74.1-29.9,107.7c-0.5,0.7-1,1.5-1.3,2.3c-5.9,15.7-16.8,29.1-30.9,38.1l-111-29.7c-1.6-3.1-3-6.4-4.2-9.7
	c-0.1-0.3-0.2-0.6-0.4-0.9c-1-2.1-1.8-4.2-2.3-6.3c0-0.1,0-0.1,0-0.2c-0.2-1.1-0.4-2.2-0.6-3.7l-4.6-26.3c0-0.1,0-0.1,0-0.2
	l-20.3-117c-0.1-0.6-0.3-1.1-0.5-1.7c-1-2.5-1.2-5.2-0.5-7.7c1.8-6.6,8.5-10.5,15.1-8.7c4.2,1.1,7.6,4.5,8.8,9.1l15.7,51.5
	c1.1,3.6,4.2,6,8.2,6c3.7-0.1,7-2.6,8-6.2L275,174.4c0.4-1.4,1.1-2.8,1.9-4l2.7-2.7c0.4-0.3,0.7-0.6,1.1-0.8
	c2.9-1.6,6.2-2.1,9.3-1.2c6.6,1.8,10.5,8.5,8.7,15.1l-15.5,58v0l-18,67.2c-1.2,4.5,1.5,9.1,5.9,10.3c4.5,1.2,9.1-1.5,10.3-5.9
	l33.5-125.2c0,0,0,0,0,0l4.5-17c0.8-3.1,2.9-5.7,5.9-7.3c3.1-1.7,6.7-2.1,10.2-1.2c3.5,0.9,6.5,3.1,8.3,6.1c1.7,2.9,2.2,6.2,1.4,9.3
	l-33.5,125.2c0,0,0,0,0,0v0l-5.6,20.7c-1.2,4.5,1.5,9.1,5.9,10.3c0.7,0.2,1.5,0.3,2.2,0.3c3.7,0,7.1-2.5,8.1-6.2l5.6-20.8
	c0,0,0,0,0,0v0l29.8-111.3c3.3-2.4,7.4-3.3,11.3-2.3c3.4,0.9,6.3,3.1,8.1,6.2c1.8,3.1,2.3,6.7,1.3,10.1c-0.2,0.9-7.5,27.9-7.5,27.9
	l-20.8,77.5c-0.3,0.5-0.4,1-0.6,1.6l-5.5,20.6c-1.2,4.5,1.5,9.1,5.9,10.3c0.7,0.2,1.5,0.3,2.2,0.3c3.7,0,7.1-2.5,8.1-6.2l3.5-13
	c0.1-0.3,0.3-0.6,0.4-0.9l17.2-64.3c0.3-0.5,0.6-1,0.8-1.6c1.6-4.3,6.2-6.8,10.6-5.8c2.4,0.5,4.5,1.9,5.8,4
	C400.2,259.8,400.7,262.2,400.2,264.4L400.2,264.4z"/>
<path class="st0" d="M358.8,110.7c2.2,0,4.3-0.8,5.9-2.5l35.1-35.1c3.3-3.3,3.3-8.6,0-11.9c-3.3-3.3-8.6-3.3-11.9,0l-35.1,35.1
	c-3.3,3.3-3.3,8.6,0,11.9C354.5,109.8,356.7,110.7,358.8,110.7L358.8,110.7z"/>
<path class="st0" d="M288.1,70.8c0.7,0.2,1.5,0.3,2.2,0.3c3.7,0,7.1-2.5,8.1-6.2l12.8-47.9c1.2-4.5-1.5-9.1-6-10.3
	c-4.5-1.2-9.1,1.5-10.3,5.9l-12.8,47.9C280.9,65,283.6,69.6,288.1,70.8L288.1,70.8z"/>
<path class="st0" d="M202.9,64.8c1,3.8,4.4,6.2,8.1,6.2c0.7,0,1.4-0.1,2.2-0.3c4.5-1.2,7.1-5.8,5.9-10.3l-12.8-47.9
	c-1.2-4.5-5.8-7.1-10.3-5.9c-4.5,1.2-7.1,5.8-5.9,10.3L202.9,64.8z"/>
</svg>
