<svg id="Calque_1" data-name="Calque 1" xmlns="http://www.w3.org/2000/svg" viewBox="0 0 564.11 159.42"><defs><style>.cls-1{fill:#2a56a3;}</style></defs><path d="M173.15,330.41a8.14,8.14,0,0,0-7.92-3.7l2.15-8a9.58,9.58,0,0,0-6.78-11.75,9.32,9.32,0,0,0-3.52-.25,9.13,9.13,0,0,0-1.33-5.4,9.64,9.64,0,0,0-3.73-3.47,9.84,9.84,0,0,0-2.79-5.63A9.54,9.54,0,0,0,138,290.46a9.09,9.09,0,0,0-8.82-6.57h0a9.19,9.19,0,0,0-6.55,2.71L91.08,318.13l1.73-7.49A9.25,9.25,0,0,0,83.88,299h0a9.26,9.26,0,0,0-9.12,7.64L58.93,349.68a13.37,13.37,0,0,0-.59,1.6.36.36,0,0,0,0,.11,15.66,15.66,0,0,0-.54,3.07,31.24,31.24,0,0,0-.46,5.21,2.71,2.71,0,0,0,.78,1.89L85.56,389a2.67,2.67,0,0,0,1.89.78h0a30.38,30.38,0,0,0,12.21-2.6l.82,4.71a12.92,12.92,0,0,0,.3,1.74.36.36,0,0,0,0,.1,15.39,15.39,0,0,0,1,2.86,30,30,0,0,0,2.21,4.74,2.66,2.66,0,0,0,1.63,1.25l37.52,10.05a2.74,2.74,0,0,0,.7.09,2.67,2.67,0,0,0,1.34-.36A30.15,30.15,0,0,0,158,397.86a3,3,0,0,0,.48-.81,245.65,245.65,0,0,0,9.59-33.83s0,0,0-.05l5.81-24.84.41-1.68a8.3,8.3,0,0,0-1.15-6.25ZM145.45,296a4.27,4.27,0,0,1,.61.75,9.66,9.66,0,0,0-3.32,1.08,9.21,9.21,0,0,0-3.41,3.29,9,9,0,0,0-3.09-1.9l3.44-3.44a4.09,4.09,0,0,1,5.77.22ZM88.53,384.45,62.67,358.59a24.76,24.76,0,0,1,.37-3.33,2.54,2.54,0,0,0,0-.29,9.77,9.77,0,0,1,.34-2,.64.64,0,0,1,0-.07,10.27,10.27,0,0,1,.44-1.17l16-43.5a2.5,2.5,0,0,0,.13-.54,3.93,3.93,0,0,1,3.88-3.36h0a3.89,3.89,0,0,1,2.77,1.15,4,4,0,0,1,1,3.9L83.77,326a2.63,2.63,0,0,0,.85,2.58A30.9,30.9,0,0,1,88,335.34a2.68,2.68,0,0,0,2.52,1.79,2.73,2.73,0,0,0,.89-.15A2.69,2.69,0,0,0,93,333.57a36.53,36.53,0,0,0-3.15-6.66l36.53-36.53a3.88,3.88,0,0,1,2.76-1.15h0a3.93,3.93,0,0,1,2.78,6.69l-4.8,4.8a9.08,9.08,0,0,0-1.16,1.16l-7.54,7.54-15.66,15.66a2.67,2.67,0,1,0,3.78,3.78l15.38-15.38-4.39,16.38-1,1h0l-4.83,4.84a2.64,2.64,0,0,0,3.18,4.17l-2.3,8.6-2.25-7.36a9.26,9.26,0,0,0-17.9,0,9.15,9.15,0,0,0,.24,5.55l6.07,35a24.77,24.77,0,0,1-10.19,2.75Zm80.56-49-5.65,24.07a2.53,2.53,0,0,0-.18.55,242.58,242.58,0,0,1-9.5,34.27,2.63,2.63,0,0,0-.42.73,24.71,24.71,0,0,1-9.84,12.13l-35.32-9.46a23.19,23.19,0,0,1-1.34-3.07l-.12-.27a10.63,10.63,0,0,1-.74-2s0,0,0,0a10.81,10.81,0,0,1-.2-1.19l-1.45-8.37v-.06L97.87,345.5a2.46,2.46,0,0,0-.15-.53,3.88,3.88,0,0,1-.15-2.47,3.93,3.93,0,0,1,4.8-2.77,4,4,0,0,1,2.8,2.88l5,16.38a2.6,2.6,0,0,0,2.6,1.89,2.67,2.67,0,0,0,2.54-2l13.95-52.08a3.85,3.85,0,0,1,.6-1.26l.86-.86c.12-.09.23-.18.36-.26a3.92,3.92,0,0,1,5.75,4.4l-4.94,18.45h0l-5.73,21.39a2.67,2.67,0,1,0,5.16,1.38L142,310.23h0l1.44-5.4a3.77,3.77,0,0,1,1.87-2.33,4.49,4.49,0,0,1,5.88,1.58,3.79,3.79,0,0,1,.45,2.94L141,346.83h0l-1.77,6.6a2.67,2.67,0,0,0,1.89,3.28,2.72,2.72,0,0,0,.69.09,2.68,2.68,0,0,0,2.58-2l1.77-6.61h0l9.49-35.4a4.25,4.25,0,0,1,3.6-.73,4.26,4.26,0,0,1,3,5.2c-.07.28-2.37,8.87-2.37,8.87l-6.61,24.66a3.13,3.13,0,0,0-.19.51l-1.76,6.56a2.68,2.68,0,0,0,1.89,3.28,2.72,2.72,0,0,0,.69.09,2.67,2.67,0,0,0,2.58-2l1.11-4.13c0-.11.11-.19.14-.3l5.48-20.45a3,3,0,0,0,.25-.51,3,3,0,0,1,3.38-1.84,2.92,2.92,0,0,1,2.28,3.41Z" transform="translate(-57.3 -253.34)"/><path class="cls-1" d="M155.92,286.54a2.66,2.66,0,0,0,1.89-.78L169,274.59a2.67,2.67,0,0,0-3.78-3.78L154,282a2.67,2.67,0,0,0,1.89,4.56Z" transform="translate(-57.3 -253.34)"/><path class="cls-1" d="M133.41,273.85a2.72,2.72,0,0,0,.69.09,2.68,2.68,0,0,0,2.58-2l4.08-15.25a2.67,2.67,0,1,0-5.16-1.38l-4.08,15.25a2.67,2.67,0,0,0,1.89,3.27Z" transform="translate(-57.3 -253.34)"/><path class="cls-1" d="M106.31,272a2.68,2.68,0,0,0,2.58,2,2.86,2.86,0,0,0,.7-.09,2.69,2.69,0,0,0,1.89-3.28l-4.09-15.25a2.67,2.67,0,1,0-5.16,1.39Z" transform="translate(-57.3 -253.34)"/><path class="cls-1" d="M224.49,377.31a56.44,56.44,0,0,1-8.8-.74,46.11,46.11,0,0,1-8.59-2.13V362.11q2.67.84,5.52,1.48a55.61,55.61,0,0,0,5.77,1,47.38,47.38,0,0,0,5.8.35q6.39,0,9.31-2.28a7.64,7.64,0,0,0,2.92-6.39,7.4,7.4,0,0,0-2.08-5.52c-1.38-1.37-4-2.7-7.77-4l-5-1.68a27.81,27.81,0,0,1-11.76-7.51q-4.59-5-4.58-13.35,0-10.24,6.83-16.17t20.51-5.92a64.1,64.1,0,0,1,8.1.49,42,42,0,0,1,6.81,1.39v12.39A40.39,40.39,0,0,0,241,315a52.73,52.73,0,0,0-7-.47,25.55,25.55,0,0,0-8.3,1.09,8.65,8.65,0,0,0-4.39,3.05,7.75,7.75,0,0,0-1.33,4.48,7.14,7.14,0,0,0,1.88,5.18q1.88,1.95,7,3.74l5,1.63a36.26,36.26,0,0,1,9.24,4.61,19.1,19.1,0,0,1,6,6.86,21.29,21.29,0,0,1,2.11,9.83A22,22,0,0,1,248,366.89a20.33,20.33,0,0,1-9.11,7.73A35.08,35.08,0,0,1,224.49,377.31Z" transform="translate(-57.3 -253.34)"/><path class="cls-1" d="M279.17,377.41A24.09,24.09,0,0,1,267,374.49a18.63,18.63,0,0,1-7.75-9.09q-2.67-6.16-2.68-15.83,0-9.85,2.68-16.09a18.68,18.68,0,0,1,7.73-9.19,23.82,23.82,0,0,1,12.23-3,23.39,23.39,0,0,1,12.16,3,19.21,19.21,0,0,1,7.76,9.24q2.67,6.21,2.67,15.83t-2.67,15.95a18.7,18.7,0,0,1-7.73,9.11A23.94,23.94,0,0,1,279.17,377.41Zm0-10.84a6.84,6.84,0,0,0,4.24-1.34q1.75-1.34,2.67-5a46.43,46.43,0,0,0,.92-10.6,47.63,47.63,0,0,0-.94-10.89q-.94-3.76-2.7-5.16a6.58,6.58,0,0,0-4.19-1.38,6.68,6.68,0,0,0-4.23,1.36q-1.77,1.36-2.7,5.08a61.94,61.94,0,0,0,0,21.5c.62,2.47,1.52,4.17,2.67,5.07A6.69,6.69,0,0,0,279.17,366.57Z" transform="translate(-57.3 -253.34)"/><path class="cls-1" d="M309.34,376.37V322.18h11.84l1.14,7.53H323a12.79,12.79,0,0,1,5.28-6.39,15,15,0,0,1,7.45-1.88,18.75,18.75,0,0,1,2,.1c.66.06,1.22.15,1.69.24v13.43a20.32,20.32,0,0,0-2.28-.27c-.79-.05-1.57-.08-2.33-.08a15.63,15.63,0,0,0-4.36.62,13.5,13.5,0,0,0-3.89,1.83,10.1,10.1,0,0,0-2.8,2.85v36.21Z" transform="translate(-57.3 -253.34)"/><path class="cls-1" d="M341.24,333.57V322.18h34.67v11.39Zm26.25,43.74q-8.76,0-13.59-4.6t-4.83-15.26V322.18l2.62-19.12h11.79v52.71c0,3.46.59,5.86,1.76,7.18s3.16,2,6,2c.76,0,1.54,0,2.35-.12s1.69-.21,2.65-.37v11.83a35.59,35.59,0,0,1-4.11.75A36,36,0,0,1,367.49,377.31Z" transform="translate(-57.3 -253.34)"/><path class="cls-1" d="M389.83,314.21q-4.6,0-6.83-2.18a9.15,9.15,0,0,1,0-12q2.22-2.15,6.83-2.15c3.11,0,5.39.72,6.86,2.15a9.21,9.21,0,0,1,0,12C395.22,313.48,392.94,314.21,389.83,314.21Zm-7.23,62.16V322.18h14.46v54.19Z" transform="translate(-57.3 -253.34)"/><path class="cls-1" d="M406.77,376.37V322.18h11.84l1.14,7.53h.69a12.79,12.79,0,0,1,5.28-6.39,15,15,0,0,1,7.46-1.88,18.75,18.75,0,0,1,2,.1,16.45,16.45,0,0,1,1.68.24v13.43a20.32,20.32,0,0,0-2.28-.27c-.79-.05-1.57-.08-2.33-.08a15.56,15.56,0,0,0-4.35.62,13.37,13.37,0,0,0-3.89,1.83,9.84,9.84,0,0,0-2.8,2.85v36.21Z" transform="translate(-57.3 -253.34)"/><path class="cls-1" d="M447.09,377.22a9.52,9.52,0,0,1-6.78-2.51,8.83,8.83,0,0,1-2.68-6.81,9,9,0,0,1,2.63-6.86,9.59,9.59,0,0,1,6.88-2.5,9.37,9.37,0,0,1,6.86,2.55,9.09,9.09,0,0,1,2.61,6.81,8.92,8.92,0,0,1-2.68,6.76A9.46,9.46,0,0,1,447.09,377.22Z" transform="translate(-57.3 -253.34)"/><path class="cls-1" d="M484.69,377.41a26.74,26.74,0,0,1-13-2.92,18.83,18.83,0,0,1-8.14-9.11q-2.81-6.19-2.8-16.05,0-10.06,3.14-16.23a19.36,19.36,0,0,1,8.94-9,31.36,31.36,0,0,1,13.77-2.8c1.69,0,3.33.07,4.93.22a39.35,39.35,0,0,1,4.68.72v11.84a24.24,24.24,0,0,0-3.56-.55c-1.22-.09-2.35-.14-3.37-.14a17.08,17.08,0,0,0-7.63,1.48,9.25,9.25,0,0,0-4.41,4.91,24.33,24.33,0,0,0-1.43,9.26,28.63,28.63,0,0,0,1.33,9.78,8.91,8.91,0,0,0,4,5,14,14,0,0,0,6.68,1.44,20.34,20.34,0,0,0,3.94-.4,34,34,0,0,0,4.43-1.19v11.89a33.16,33.16,0,0,1-5.74,1.39A38.63,38.63,0,0,1,484.69,377.41Z" transform="translate(-57.3 -253.34)"/><path class="cls-1" d="M522.64,377.41a24,24,0,0,1-12.21-2.92,18.64,18.64,0,0,1-7.76-9.09Q500,359.24,500,349.57q0-9.85,2.67-16.09a18.73,18.73,0,0,1,7.73-9.19,23.86,23.86,0,0,1,12.24-3,23.41,23.41,0,0,1,12.16,3,19.19,19.19,0,0,1,7.75,9.24q2.67,6.21,2.68,15.83t-2.68,15.95a18.65,18.65,0,0,1-7.73,9.11A23.9,23.9,0,0,1,522.64,377.41Zm0-10.84a6.79,6.79,0,0,0,4.23-1.34c1.17-.89,2.07-2.56,2.68-5a46.54,46.54,0,0,0,.91-10.6,47.63,47.63,0,0,0-.94-10.89q-.93-3.76-2.7-5.16a6.57,6.57,0,0,0-4.18-1.38,6.71,6.71,0,0,0-4.24,1.36q-1.75,1.36-2.7,5.08a61.94,61.94,0,0,0,0,21.5c.63,2.47,1.52,4.17,2.68,5.07A6.65,6.65,0,0,0,522.64,366.57Z" transform="translate(-57.3 -253.34)"/><path class="cls-1" d="M552.8,376.37V322.18h12l1.09,5.75h.65a16.86,16.86,0,0,1,6-5,17.26,17.26,0,0,1,7.56-1.61,14.83,14.83,0,0,1,7.13,1.73,12.15,12.15,0,0,1,5.13,5.77c1.27,2.7,1.91,6.3,1.91,10.83v36.7H580.1V341.3q0-4.11-1.56-5.62a5.56,5.56,0,0,0-4-1.51,8.52,8.52,0,0,0-2.53.42,9.2,9.2,0,0,0-2.6,1.34,8,8,0,0,0-2.15,2.4v38Zm54.2,0V341.3c0-2.74-.56-4.61-1.66-5.62a5.92,5.92,0,0,0-4.14-1.51,8.91,8.91,0,0,0-2.6.44,9.67,9.67,0,0,0-2.77,1.44,8.35,8.35,0,0,0-2.31,2.63L591,329.76a17.73,17.73,0,0,1,6.81-6.37,18.16,18.16,0,0,1,8.34-2.05,16.59,16.59,0,0,1,7.76,1.81,12.6,12.6,0,0,1,5.52,6q2,4.2,2,11.34v35.86Z" transform="translate(-57.3 -253.34)"/></svg>